<svg width="32" height="32" viewBox="0 0 32 32" fill="none" xmlns="http://www.w3.org/2000/svg">
<g id="Pern Logo">
<path id="Vector" d="M21.3662 18.4616C21.4646 17.6492 21.5385 16.8369 21.5385 16C21.5385 15.1631 21.4646 14.3508 21.3662 13.5385H25.5262C25.7231 14.3262 25.8462 15.1508 25.8462 16C25.8462 16.8492 25.7231 17.6739 25.5262 18.4616M19.1877 25.3046C19.9262 23.9385 20.4923 22.4616 20.8862 20.9231H24.5169C23.3245 22.9764 21.4328 24.5317 19.1877 25.3046ZM18.88 18.4616H13.12C12.9969 17.6492 12.9231 16.8369 12.9231 16C12.9231 15.1631 12.9969 14.3385 13.12 13.5385H18.88C18.9908 14.3385 19.0769 15.1631 19.0769 16C19.0769 16.8369 18.9908 17.6492 18.88 18.4616ZM16 25.7969C14.9785 24.32 14.1538 22.6831 13.6492 20.9231H18.3508C17.8462 22.6831 17.0215 24.32 16 25.7969ZM11.0769 11.0769H7.48308C8.66321 9.01812 10.5536 7.4603 12.8 6.6954C12.0615 8.06155 11.5077 9.53848 11.0769 11.0769ZM7.48308 20.9231H11.0769C11.5077 22.4616 12.0615 23.9385 12.8 25.3046C10.5583 24.5313 8.67058 22.9757 7.48308 20.9231ZM6.47385 18.4616C6.27692 17.6739 6.15384 16.8492 6.15384 16C6.15384 15.1508 6.27692 14.3262 6.47385 13.5385H10.6338C10.5354 14.3508 10.4615 15.1631 10.4615 16C10.4615 16.8369 10.5354 17.6492 10.6338 18.4616M16 6.19078C17.0215 7.66771 17.8462 9.31694 18.3508 11.0769H13.6492C14.1538 9.31694 14.9785 7.66771 16 6.19078ZM24.5169 11.0769H20.8862C20.5009 9.55258 19.9305 8.08112 19.1877 6.6954C21.4523 7.47078 23.3354 9.03386 24.5169 11.0769ZM16 3.69232C9.19384 3.69232 3.69231 9.23078 3.69231 16C3.69231 19.2642 4.98901 22.3947 7.29715 24.7029C8.44002 25.8457 9.79681 26.7523 11.29 27.3708C12.7833 27.9894 14.3837 28.3077 16 28.3077C19.2642 28.3077 22.3947 27.011 24.7029 24.7029C27.011 22.3947 28.3077 19.2642 28.3077 16C28.3077 14.3837 27.9893 12.7833 27.3708 11.2901C26.7523 9.79683 25.8457 8.44004 24.7029 7.29716C23.56 6.15429 22.2032 5.24771 20.7099 4.62919C19.2167 4.01067 17.6163 3.69232 16 3.69232Z" fill="#6172F3"/>
</g>
</svg>
